/* XPM */
static char *_1cb5cd9347f4191eaa93006f01ce617mo2HbNSJCUrLQ4Zd[] = {
/* columns rows colors chars-per-pixel */
"64 64 81 1 ",
"  c #131313",
". c #181818",
"X c #1D1D1D",
"o c #222222",
"O c #272727",
"+ c gray17",
"@ c #2C2C2C",
"# c #313131",
"$ c #353535",
"% c #3A3A3A",
"& c #3F3F3F",
"* c gray25",
"= c gray27",
"- c #494848",
"; c gray31",
": c #535353",
"> c gray34",
", c #585757",
"< c #5B5A5A",
"1 c #5C5B5B",
"2 c #5F5E5E",
"3 c #605F5F",
"4 c gray39",
"5 c #676666",
"6 c #686767",
"7 c #6B6A6A",
"8 c #6C6B6B",
"9 c #6F6E6E",
"0 c #706F6F",
"q c #727171",
"w c #747272",
"e c #777676",
"r c #787777",
"t c #7B7A7A",
"y c #7C7B7B",
"u c #7F7E7E",
"i c #807F7F",
"p c #838282",
"a c #848383",
"s c #868585",
"d c #888787",
"f c #8B8A8A",
"g c #8C8B8B",
"h c #8F8E8E",
"j c #908F8F",
"k c #929191",
"l c #949393",
"z c #979595",
"x c #989797",
"c c #9B9999",
"v c #9C9B9B",
"b c #9F9E9E",
"n c #A09F9F",
"m c #A3A1A1",
"M c #A4A3A3",
"N c #A7A6A6",
"B c #A8A7A7",
"V c #ABAAAA",
"C c #ACABAB",
"Z c #AEADAD",
"A c #B0AFAF",
"S c #B3B1B1",
"D c #B5B3B3",
"F c #B6B5B5",
"G c #B8B7B7",
"H c #BBB9B9",
"J c #BDBBBB",
"K c #BFBEBE",
"L c #C1BFBF",
"P c #C1C0C0",
"I c #C5C3C3",
"U c #C7C6C6",
"Y c #C8C6C6",
"T c #CBC9C9",
"R c #CCCBCB",
"E c #CECDCD",
"W c #D0CECE",
"Q c #D3D1D1",
"! c #D5D3D3",
"~ c #D7D6D6",
"^ c #D8D6D6",
/* pixels */
"mmmmmmmmmmmmmmmmmmmmmmmmmmmmmmmmmmmmmmmmmmmmmmmmmmmmmmmmmmmmmmmm",
"m~^^^^^^^^^^^~^^~^^^^^^~^^^~^^~^^~^^^^^^~^^^^^~~^~^^^^^^^^^^^^^m",
"n~~~~~~~~~~~~~~~~~~~~~~~~~~~~~~~~~~~~~~~~~~~~~~~~~~~~~~~~~~~~~~n",
"b!!!!!!!!!!!!!!!!!!!!!!!!!!!!!!!!!!!!!!!!!!!!!!!!!!!!!!!!!!!!!!b",
"bQQQQQQQQQQQQQQQQQQQQQQQQQQQQQQQQQQQQQQQQQQQQQQQQQQQQQQQQQQQQQQb",
"bQQWQQQQQQWWWQWQQQQQQWWWWWQQQWQQQWQQWQQWQWQQWQQWQQQWQQQQQQQQQQQb",
"vWWWWWWWWWEEWWWWEWWWWWEWWWWEWEWEWWEWWWWWEEWWWWWEWWWWWWWWWWEEWWWv",
"cEEEEEEEEEEEEEEEEEEEEEEEEEEEEEEEEEEEEEEEEEEEEEEEEEEEEEEEEEEEEEEc",
"cRRRRRRRRRRRRRRRRRRRRRRRRRRRRRRRRRRRRRRRRRRRRRRRRRRRRRRRRRRRRRRc",
"xTTTTTTTTTTTTTTTTTTTTTTTTTTTTTTTTTTTTTTTTTTTTTTTTTTTTTTTTTTTTTTx",
"zTTTTTYTYTTTTYTTTTTTTYTTTTTTTTTTYTTYTTTTTTYTTYTYYTTTTTTYTTTTTTTz",
"zUYYYUYYYYYYYUYYYYYYYYYYYYUYYYUYYYYYYYYYYYYYYUYYYUYYYYUYYYYYUYYz",
"lUUUUUUUUUUUUUUUUUUUUUUUUUUUUUUUUUUUUUUUUUUUUUUUUUUUUUUUUUUUUUUz",
"lIIIIIIIIIIIIIIIIIIIIIIIIIIIIIIIIIIIIIIIIIIIIIIIIIIIIIIIIIIIIIIl",
"kPPPPPPPPPPPPPPPPPPPPPPPPPPPPPPPPPPPPPPPPPPPPPPPPPPPPPPPPPPPPPPk",
"kPPPPPPPPPPPPPPPPPPLPLPLPPPPPPPLPPPPLPPPPPPLLPPLPPLLLPLPPPPPPPPk",
"jLKLLLKLLLLLLLKLKLKLLLLKLLKLLLLLLKKLLKKKKLLKLLLLLLLKLLLLLLKLLLLh",
"hKKKKKKKKKKKKKKKKKKKKKKKKKKKKKKKKKKKKKKKKKKKKKKKKKKKKKKKKKKKKKKh",
"hJJJJJJJJJJJJJJJJJJJJJJJJJJJJJJJJJJJJJJJJJJJJJJJJJJJJJJJJJJJJJJh",
"gHHHHHHHHHHHHHHHHHHHHHHHHHHHHHHHHHHHHHHHHHHHHHHHHHHHHHHHHHHHHHHg",
"fHHHHHHHHHHHHHHHHHHHHHHHHHHHHHHHHHHHHHHHHHHHHHHHHHHHHHHHHHHHHHHf",
"fGGGGGGGGGGGGGGFGGGGGGGGGGFGGGG--GGGGGGGGFGGFFGGFGGGGGGGGGGFGGGf",
"dFFFFFFFFFFFFFFFFFFFFFFFFFFFFFFXXFFFFFFFFFFFFFFFFFFFFFFFFFFFFFFd",
"dDDDDDDDDDDDDDDDDDDDDDDDDDDDDDD  DDDDDDDDDDDDDDFDDDDDDDDDDDDDDDs",
"sSSSSSSSSSSSSSSSSSSSSSSSSSSSSSS..SSSSSSSSSSSSSSSSSSSSSSSSSSSSSSs",
"sSSSSSSSSSSSSSSSSSSSSSSSSSSSSSSXXSSSSSSSSSSSSSSSSSSSSSSSSSSSSSSs",
"aAAZAAAAAAAAAZAZAAAAAAAAAAAZAAAooAAZAAAAAZAAAAAAAAAAAAZAAAAAAAAa",
"pZZZZZZZZZZZZZZZZZZZZZZZZZZZZZZOOZZZZZZZZZZZZZZZZZZZZZZZZZZZZZZp",
"pCCCCCCCCCCCZCCCCCCCCCCCCCCCCCZ@+CCCCCCCCCCCCCCCCCCCCCCCCCCCCCCp",
"pVVVVVVVVVVVVVVVVVVVVVVVVVVVVVV##VVVVVVVVVVVVVVVVVVVVVVVVVVVVVVp",
"uBVVVVVVVVVVVVVVVVVVVVVVVVVVVVV$$VVVVVVVVVVVVVVVVVVVVVVVVVVVVVVi",
"uBBBBBNBBBBBBBBBBBBBNBBNBBBBBBB%%BNBNNBNNBBBBBBBBBBBNNBNBBBBNBBu",
"yNNNNNNNNNNNNNNNNNNNNNNNNNs222>&&>222sNNNNNNNNNNNNNNNNNNNNNNNNNu",
"tMMMMNMMMMMMMMMMMMMMMMMMMMn:==*&&*==:MMMMMMMMNMMMMMMMMMMMMMMMMMt",
"tmmmmmmmmmmmmmmmmmmmmmmmmmma*&&&****ummmmmmmmmmmmmmmmmmmmmmmmmmt",
"tmmmmmmmmmmmmmmmmmmmmmmmmmmm2======2mmmmmmmmmmmmmmmmmmmmmmmmmmmt",
"rnnnbnnnnnnnnnnnnnnnbnnnnnnnf------zbnnbnnnbbnnnbnnnnbnnnbbnnnbr",
"ebbbbbbbbbbbbbbbbbbbbbbbbbbbbq;;;;9bbbbbbbbbbbbbbbbbbbbbbbbbbbbe",
"evvvbvvvvvvvbvvvvbvvvvvbvvvbvx<>>2lvbvbvvvvvbvbvvvvvvvvvvvvbbvve",
"ecccccccccccccccccccccccccccccy<<ucccccccccccccccccccccccccccccw",
"wcccccccccccccccccccccccccccccc55ccccccccccccccccccccccccccccccq",
"qxxxxxxxxxxxxxxxxxxxxxxxxxxxxxxfsxxxxxxxxxxxxxxxxxxxxxxxxxxxxxxq",
"qzzzzzzzzzzzzzzzzzzzzzzzzzzzzzzzzzzzzzzzzzzzzzzzzzzzzzzzzzzzzzzq",
"9zllzlzzzlzzllllzllzlzlzzlllzllzlzzlllzlllzllzlllzzlllzzzllllll0",
"9kkkkkkkkkkkkkkkkkkkkkkkkkkkkkkkkkkkkkkkkkklkkkkkkkkkkkkkkkkkkk9",
"9kkkkkkkkkkkkkkkkkkkkkkkkkkkkkkkkkkkkkkkkkkkkkkkkkkkkkkkkkkkkkk9",
"8jjjjjjjjjjjjjjjjjjjjjjjjjjjjjjjjjjjjjjjjjjjjjjjjjjjjjjjjjjjjjj8",
"7hhhhhhhhhhhhhhhhhhhhhhhhhhhhhhhhhhhhhhhhhhhhhhhhhhhhhhhhhhhhhh7",
"7hghhhgghghghghgghhhggghggghhghghghhhghhhgghhgghggghggghggghghh7",
"6ffffffffffffffffffffffffffffffffffffffffffffffffffffffffffffff7",
"5fffffffffffffffffffffffffffffffffffdffffffffffffffffffffffffff5",
"5dddddddddddddddddddddddddddddddddddddddddddddddddddddddddddddd5",
"4ssssssssssssssssssssssssssssssssssssssssssssssssssssssssssssss5",
"4ssaasssaaspssssaaaasssssaaassssassssaaassaassasassassssaassssa4",
"4papppppppppppppppppppppppppppppppppppppppppppppppppppppppppppp4",
"4ppppppppppppppppppppppppppppppppppppppppppppppppppppppppppiipp4",
"3iiiiiiiiiiiiiiiiiiiiiiuiiiiiiiiiiiiiiiuiiiiiiiiiiiiiiiiiiiiiii3",
"2uuuuuuuuuuuuuuuuuuuuuuuuuuuuuuuuuuuuuuuuuuuuuuuuuuuuuuuuuuuuuu2",
"2uuyyuuuuuuuuuuuuuuuuyuuuuuuuuuuuuuyuuuuuuuuuuuuuuuuuyuuuyuuuuu2",
"1tttttttttttttytttttttttttttttttttttttttttttttttttttttttttttytt1",
"<tttttttttttttttttttttttttttttttttttttttttttttttttttttttttttttt<",
"<rrrrrrrrrrrrrrrrrerrrrrrrrrrrrrrrrrrrrrrrrrrrrrrrerrrrrrrrrrrr<",
"<eeeeeeeeeeeeeeeeeeeeeeeeeeeeeeeeeeeeeeeeeeeeeeeeeeeeeeeeeeeeee<",
",,,,,,>,,,,,,,,,,,,,,>,>,,,,,>,,>,,,>,,,,,,,>,,,,,>,>,>,>,,,,,,,"
};
