/* XPM */
static char *ad36e6e2dfce40f2ec84380e6ecc7d9f9ERBrnN7y3gJPQ7e[] = {
/* columns rows colors chars-per-pixel */
"64 64 82 1 ",
"  c #0E0E0E",
". c gray8",
"X c #181818",
"o c #1D1D1D",
"O c #222222",
"+ c gray15",
"@ c #2C2C2C",
"# c #313131",
"$ c #373737",
"% c gray23",
"& c #3F3F3F",
"* c gray26",
"= c #444444",
"- c #484747",
"; c gray29",
": c gray31",
"> c #515151",
", c #565656",
"< c #585757",
"1 c #585858",
"2 c #5C5B5B",
"3 c #5D5D5D",
"4 c #605F5F",
"5 c #626262",
"6 c #676666",
"7 c #686767",
"8 c gray42",
"9 c #6C6B6B",
"0 c #6F6E6E",
"q c #706F6F",
"w c #717171",
"e c #747272",
"r c #777676",
"t c #787777",
"y c gray47",
"u c #7C7B7B",
"i c #7D7C7C",
"p c #807F7F",
"a c #838282",
"s c #848383",
"d c #848484",
"f c #888787",
"g c #8B8A8A",
"h c #8C8B8B",
"j c #8D8C8C",
"k c #908F8F",
"l c #929191",
"z c #949393",
"x c #979595",
"c c #989797",
"v c #9B9999",
"b c #9C9B9B",
"n c #9F9E9E",
"m c #A09F9F",
"M c #A3A1A1",
"N c #A4A3A3",
"B c #A7A6A6",
"V c #A8A7A7",
"C c #ABAAAA",
"Z c #ACAAAA",
"A c #AEADAD",
"S c #B0AFAF",
"D c #B3B1B1",
"F c #B5B3B3",
"G c #B6B5B5",
"H c #B8B7B7",
"J c #BBB9B9",
"K c #BDBBBB",
"L c #BFBEBE",
"P c #C1BFBF",
"I c #C1C0C0",
"U c #C5C3C3",
"Y c #C7C6C6",
"T c #C8C6C6",
"R c #CBC9C9",
"E c #CCCBCB",
"W c #CECDCD",
"Q c #D0CECE",
"! c #D3D1D1",
"~ c #D5D3D3",
"^ c #D7D6D6",
"/ c #D8D6D6",
/* pixels */
"MMMMMMMMMMMMMMMMMMMMMMMMMMMMMMMMMMMMMMMMMMMMMMMMMMMMMMMMMMMMMMMM",
"M^///////////^//^//////^///^//^//^//////^/////^^/^/////////////M",
"m^^^^^^^^^^^^^^^^^^^^^^^^^^^^^^^^^^^^^^^^^^^^^^^^^^^^^^^^^^^^^^m",
"n~~~~~~~~~~~~~~~~~~~~~~~~~~~~~~~~~~~~~~~~~~~~~~~~~~~~~~~~~~~~~~n",
"n!!!!!!!!!!!!!!!!!!!!!!!!!!!!!!!!!!!!!!!!!!!!!!!!!!!!!!!!!!!!!!n",
"n!!Q!!!!!!QQQ!Q!!!!!!QQQQQ!!!Q!!!Q!!Q!!Q!Q!!Q!!Q!!!Q!!!!!!!!!!!n",
"bQQQQQQQQQWWQQQQWQQQQQWQQQQWQWQWQQWQQQQQWWQQQQQWQQQQQQQQQQWWQQQb",
"vWWWWWWWWWWWWWWWWWWWWWWWWWWWWWWWWWWWWWWWWWWWWWWWWWWWWWWWWWWWWWWv",
"vEEEEEEEEEEEEEEEEEEEEEEEEEEEEEEEEEEEEEEEEEEEEEEEEEEEEEEEEEEEEEEv",
"cRRRRRRRRRRRRRRRRRRRRRRRRRRRRRRRRRRRRRRRRRRRRRRRRRRRRRRRRRRRRRRc",
"xRRRRRTRTRRRRTRRRRRRRTRRRRRRRRRRTRRTRRRRRRTRRTRTTRRRRRRTRRRRRRRx",
"xYTTTYTTTTTTTYTTTTTTTTTTTTYTTTYTTTTTTTTTTTTTTYTTTYTTTTYTTTTTYTTx",
"zYYYYYYYYYYYYYYYYYYYYYYYYYYYYYYYYYYYYYYYYYYYYYYYYYYYYYYYYYYYYYYx",
"zUUUUUUUUUUUUUUUUUUUUUUUUUUUUUUUUUUUUUUUUUUUUUUUUUUUUUUUUUUUUUUz",
"lIIIIIIIIIIIIIIIIIIIIIIIIIIIIIIIIIIIIIIIIIIIIIIIIIIIIIIIIIIIIIIl",
"lIIIIIIIIIIIIIIIIIIPIPIPIIIIIIIPIIIIPIIIIIIPPIIPIIPPPIPIIIIIIIIl",
"kPLPPPLPPPPPPPLPLPLPPPPLPPLPPPPPPLLPPLLLLPPLPPPPPPPLPPPPPPLPPPPj",
"jLLLLLLLLLLLLLLLLLLLLLLLLLLLLLLLLLLLLLLLLLLLLLLLLLLLLLLLLLLLLLLj",
"jKKKKKKKKKKKKKKKKKKKKKKKKKKKKKKKKKKKKKKKKKKKKKKKKKKKKKKKKKKKKKKj",
"hJJJJJJJJJJJJJJJJJJJJJJJJJJJJJJJJJJJJJJJJJJJJJJJJJJJJJJJJJJJJJJh",
"gJJJJJJJJJJJJJJJJJJJJJJJJJJJJJJJJJJJJJJJJJJJJJJJJJJJJJJJJJJJJJJg",
"gHHHHHHHHHHHHHHGHHHHHHHHHHGHHHHHHHHHHHHHHGHHGGHHGHHHHHHHHHHGHHHg",
"fGGGGGGGGGGGGGGGGGGGGGGGGGGGGGGGGGGGGGGGGGGGGGGGGGGGGGGGGGGGGGGf",
"fFFFFFFFFFFFFFFFFFFFFFFFFFFFFFFFFFFFFFFFFFFFFFFGFFFFFFFFFFFFFFFd",
"dDDDDDDDDDDDDDDDDDDDDDDDDDDDDDDDDDDDDDDDDDDDDDDDDDDDDDDDDDDDDDDd",
"dDDDDDDDDDDDDDDDDDDDDDDDDDDDDDDDDDDDDDDDDDDDDDDDDDDDDDDDDDDDDDDd",
"sSSASSSSSSSSSASASSSSSSSSSSSASSZgSSSASSSSSASSSSSSSSSSSSASSSSSSSSs",
"aAAAAAAAAAAAAAAAAAAAAAAAAAAAAv81AAAAAAAAAAAAAAAAAAAAAAAAAAAAAAAa",
"aZZZZZZZZZZZAZZZZZZZZZZZZZZni1=*ZZZZZZZZZZZZZZZAZZZZZZZZZZZZZZZa",
"aCCCCCCCCCCCCCCCCCCCCCCCCVj8,=%&CCCCCCCCCCCCCCCCCCCCCCCCCCCCCCCa",
"iCCCCCCCCCCCCCCCCCCCCCCCxy5>=*%&CCCCCCCCCCCCCCCCCCCCCCCCCCCCCCCp",
"iVVVVVBVVVVVVVVVVVVVBVmdw3>;=*%&>,>:;=*&%$=VVVVVVVVVBBVBVVVVVVVi",
"uBBBBBBBBBBBBBBBBBBBBBcw3,:;=*%$%$#@+OoX. @BBBBBBBBBBBBBBBBBBBBi",
"yNNNNBNNNNNNNNNNNNNNNNNNa3:;=*%$NNNNNNNNNNNNNBNNNNNNNNNNNNNNNNNy",
"yMMMMMMMMMMMMMMMMMMMMMMMMv0;=*%&MMMMMMMMMMMMMMMMMMMMMMMMMMMMMMMy",
"yMMMMMMMMMMMMMMMMMMMMMMMMMMx3*%&MMMMMMMMMMMMMMMMMMMMMMMMMMMMMMMy",
"tmmmnmmmmmmmmmmmmmmmnmmmmmmmmu-&mnmmnmmnmmmnnmmmnmmmmnmmmnnmmmnt",
"rnnnnnnnnnnnnnnnnnnnnnnnnnnnnnnwnnnnnnnnnnnnnnnnnnnnnnnnnnnnnnnr",
"rbbbnbbbbbbbnbbbbnbbbbbnbbbnbbbnbbnbnbnbbbbbnbnbbbbbbbbbbbbnnbbr",
"rvvvvvvvvvvvvvvvvvvvvvvvvvvvvvvvvvvvvvvvvvvvvvvvvvvvvvvvvvvvvvve",
"evvvvvvvvvvvvvvvvvvvvvvvvvvvvvvvvvvvvvvvvvvvvvvvvvvvvvvvvvvvvvvw",
"wccccccccccccccccccccccccccccccccccccccccccccccccccccccccccccccw",
"wxxxxxxxxxxxxxxxxxxxxxxxxxxxxxxxxxxxxxxxxxxxxxxxxxxxxxxxxxxxxxxw",
"0xzzxzxxxzxxzzzzxzzxzxzxxzzzxzzxzxxzzzxzzzxzzxzzzxxzzzxxxzzzzzzq",
"0llllllllllllllllllllllllllllllllllllllllllzlllllllllllllllllll0",
"0llllllllllllllllllllllllllllllllllllllllllllllllllllllllllllll0",
"9kkkkkkkkkkkkkkkkkkkkkkkkkkkkkkkkkkkkkkkkkkkkkkkkkkkkkkkkkkkkkk9",
"8jjjjjjjjjjjjjjjjjjjjjjjjjjjjjjjjjjjjjjjjjjjjjjjjjjjjjjjjjjjjjj8",
"8jhjjjhhjhjhjhjhhjjjhhhjhhhjjhjhjhjjjhjjjhhjjhhjhhhjhhhjhhhjhjj8",
"7gggggggggggggggggggggggggggggggggggggggggggggggggggggggggggggg8",
"6gggggggggggggggggggggggggggggggggggggggggggggggggggggggggggggg6",
"6ffffffffffffffffffffffffffffffffffffffffffffffffffffffffffffff6",
"6dddddddddddddddddddddddddddddddddddddddddddddddddddddddddddddd6",
"5ddssdddssdsddddssssdddddssdddddsddddsssddddddsddddsddddssdddds5",
"5asaaaaaaaaaaaaaaaaaaaaaaaaaaaasaaaaaaaaaaaaaaasaaaaaaaaaaaaaaa5",
"5aaaaaaaaaaaaaaaaaaaaaaaaaaaaaaaaaaaaaaaaaaaaaaaaaaaaaaaaaaaaaa5",
"4pppppppppppppppppppppppppppppppppppppppppppppppppppppppppppppp4",
"3iiiiipiiiiiiiiiiiiiiiiiiiiiiiiiiiiiiiiiiiiiiiiiiiiiiiiiiiiiiii3",
"3iiuuiiiiiiiiiiiiiiiiuiiiiiiiiiiiiiuiiiiiiiiiiiiiiiiiuiiiuiiiii3",
"2yyyyyyyyyyyyyuyyyyyyyyyyyyyyyyyyyyyyyyyyyyyyyyyyyyyyyyyyyyyuyy2",
"1yyyyyyyyyyyyyyyyyyyyyyyyyyyyyyyyyyyyyyyyyyyyyyyyyyyyyyyyyyyyyy1",
"1tttttttttttttttttttttttttttttttttttttttttttttttttttttttttttttt1",
"1rrrrrrrrrrrrrrrrrrrrrrrrrrtrrrrrrrrrrrrrrrrrrrrrrrrrrrrrrrtrrr1",
"<<<<<<,<<<<<<<<<<<<<<,<,<<<<<,<<,<<<,<<<<<<<,<<<<<<<,<,<,<<<<<<<"
};
