/* XPM */
static char *_d2cb474313e46649bf654b078c9ab63fgwess144Ng1ZXpU[] = {
/* columns rows colors chars-per-pixel */
"64 64 82 1 ",
"  c gray7",
". c gray9",
"X c #1B1B1B",
"o c gray11",
"O c gray13",
"+ c gray15",
"@ c gray17",
"# c #2C2C2C",
"$ c #323232",
"% c gray22",
"& c #3E3E3E",
"* c #414141",
"= c #444444",
"- c #494949",
"; c gray30",
": c #535353",
"> c gray34",
", c #585757",
"< c #5B5A5A",
"1 c #5C5B5B",
"2 c #5F5E5E",
"3 c #605F5F",
"4 c #626262",
"5 c gray39",
"6 c #676767",
"7 c #686767",
"8 c gray42",
"9 c #6C6B6B",
"0 c #6F6F6F",
"q c #706F6F",
"w c gray45",
"e c #747272",
"r c #777777",
"t c #787777",
"y c #7B7B7B",
"u c #7C7B7B",
"i c gray50",
"p c #807F7F",
"a c #838383",
"s c #848383",
"d c #868585",
"f c #888787",
"g c #8B8B8B",
"h c #8C8B8B",
"j c #8F8E8E",
"k c #908F8F",
"l c #929191",
"z c #949393",
"x c #979595",
"c c #989797",
"v c #9B9999",
"b c #9C9B9B",
"n c #9F9E9E",
"m c #A09F9F",
"M c #A3A1A1",
"N c #A4A3A3",
"B c #A7A6A6",
"V c #A8A7A7",
"C c #ABAAAA",
"Z c #ACABAB",
"A c #AEADAD",
"S c #B0AFAF",
"D c #B3B1B1",
"F c #B5B3B3",
"G c #B6B5B5",
"H c #B8B7B7",
"J c #BBB9B9",
"K c #BDBBBB",
"L c #BFBEBE",
"P c #C1BFBF",
"I c #C1C0C0",
"U c #C5C3C3",
"Y c #C7C6C6",
"T c #C8C6C6",
"R c #CBC9C9",
"E c #CCCBCB",
"W c #CECDCD",
"Q c #D0CECE",
"! c #D3D1D1",
"~ c #D5D3D3",
"^ c #D7D6D6",
"/ c #D8D6D6",
/* pixels */
"MMMMMMMMMMMMMMMMMMMMMMMMMMMMMMMMMMMMMMMMMMMMMMMMMMMMMMMMMMMMMMMM",
"M^///////////^//^//////^///^//^//^//////^/////^^/^/////////////M",
"m^^^^^^^^^^^^^^^^^^^^^^^^^^^^^^^^^^^^^^^^^^^^^^^^^^^^^^^^^^^^^^m",
"n~~~~~~~~~~~~~~~~~~~~~~~~~~~~~~~~~~~~~~~~~~~~~~~~~~~~~~~~~~~~~~n",
"n!!!!!!!!!!!!!!!!!!!!!!!!!!!!!!!!!!!!!!!!!!!!!!!!!!!!!!!!!!!!!!n",
"n!!Q!!!!!!QQQ!Q!!!!!!QQQQQ!!!Q!!!Q!!Q!!Q!Q!!Q!!Q!!!Q!!!!!!!!!!!n",
"bQQQQQQQQQWWQQQQWQQQQQWQQQQWQWQWQQWQQQQQWWQQQQQWQQQQQQQQQQWWQQQb",
"vWWWWWWWWWWWWWWWWWWWWWWWWWWWWWWWWWWWWWWWWWWWWWWWWWWWWWWWWWWWWWWv",
"vEEEEEEEEEEEEEEEEEEEEEEEEEEEEEEEEEEEEEEEEEEEEEEEEEEEEEEEEEEEEEEv",
"cRRRRRRRRRRRRRRRRRRRRRRRRRRRRRRRRRRRRRRRRRRRRRRRRRRRRRRRRRRRRRRc",
"xRRRRRTRTRRRRTRRRRRRRTRRRRRRRRRRTRRTRRRRRRTRRTRTTRRRRRRTRRRRRRRx",
"xYTTTYTTTTTTTYTTTTTTTTTTTTYTTTYTTTTTTTTTTTTTTYTTTYTTTTYTTTTTYTTx",
"zYYYYYYYYYYYYYYYYYYYYYYYYYYYYYYYYYYYYYYYYYYYYYYYYYYYYYYYYYYYYYYx",
"zUUUUUUUUUUUUUUUUUUUUUUUUUUUUUUUUUUUUUUUUUUUUUUUUUUUUUUUUUUUUUUz",
"lIIIIIIIIIIIIIIIIIIIIIIIIIIIIIIIIIIIIIIIIIIIIIIIIIIIIIIIIIIIIIIl",
"lIIIIIIIIIIIIIIIIIIPIPIPIIIIIIIPIIIIPIIIIIIPPIIPIIPPPIPIIIIIIIIl",
"kPLPPPLPPPPPPPLPLPLPPPPLPPLPPPPPPLLPPLLLLPPLPPPPPPPLPPPPPPLPPPPj",
"jLLLLLLLLLLLLLLLLLLLLLLLLLLLLLLLLLLLLLLLLLLLLLLLLLLLLLLLLLLLLLLj",
"jKKKKKKKKKKKKKKKKKKKKKKKKKKKKKKKKKKKKKKKKKKKKKKKKKKKKKKKKKKKKKKj",
"hJJJJJJJJJJJJJJJJJJJJJJJJJJJJJJJJJJJJJJJJJJJJJJJJJJJJJJJJJJJJJJh",
"gJJJJJJJJJJJJJJJJJJJJJJJJJJJJJJJJJJJJJJJJJJJJJJJJJJJJJJJJJJJJJJg",
"gHHHHHHHHHHHHHHGHHHHHHHHHHGHHHHHHHHHHHHHHGHHGGHHGHHHHHHHHHHGHHHg",
"fGGGGGGGGGGGGGGGGGGGGGGGGGGGGGGGGGGGGGGGGGGGGGGGGGGGGGGGGGGGGGGf",
"fFFFFFFFFFFFFFFFFFFFFFFFFFFFFFFFFFFFFFFFFFFFFFFGFFFFFFFFFFFFFFFd",
"dDDDDDDDDDDDDDDDDDDDDDDDDDDDDDDDDDDDDDDDDDDDDDDDDDDDDDDDDDDDDDDd",
"dDDDDDDDDDDDDDDDDDDDDDDDDDDDDDDDDDDDDDDDDDDDDDDDDDDDDDDDDDDDDDDd",
"sSSASSSSSSSSSASASSSSSSSSSSSASSSSgSSASSSSSASSSSSSSSSSSSASSSSSSSSs",
"aAAAAAAAAAAAAAAAAAAAAAAAAAAAAAAA:4jAAAAAAAAAAAAAAAAAAAAAAAAAAAAa",
"aZZZZZZZZZZZAZZZZZZZZZZZZZZZZZAZ&%-8MZZZZZZZZZZZZZZZZZZZZZZZZZZa",
"aCCCCCCCCCCCCCCCCCCCCCCCCCCCCCCC%#@$=0nCCCCCCCCCCCCCCCCCCCCCCCCa",
"iVCCCCCCCCCCCCCCCCCCCCCCCCCCCCCC%#+O+$;iCCCCCCCCCCCCCCCCCCVVVVCp",
"iVVVVVBVVVVVVVVVVVVVBgaiyrw0864>%#+OoXo#-aVVVVVVVVVVBBVBVVVVBVVi",
"uBBBBBBBBBBBBBBBBBBBBi8642>:;-=&$@+Oo.  #gBBBBBBBBBBBBBBBBBBBBBi",
"yNNNNBNNNNNNNNNNNNNNNNNNNNNNNNNN$@+Oo.X<NNNNNBNNNNNNNNNNNNNNNNNy",
"yMMMMMMMMMMMMMMMMMMMMMMMMMMMMMMM%@+Oo>vMMMMMMMMMMMMMMMMMMMMMMMMy",
"yMmmMMMMMMMMMMMMMMMMMMMMMMMMMMMM%#+*pMMMMMMMMMMMMMMMMMMMMMMMMMMy",
"tmmmnmmmmmmmmmmmmmmmnmmmmmmmmmmm%%ymnmmnmmmnnmmmnmmmmnmmmnnmmmnt",
"rnnnnnnnnnnnnnnnnnnnnnnnnnnnnnnn0xnnnnnnnnnnnnnnnnnnnnnnnnnnnnnr",
"rbbbnbbbbbbbnbbbbnbbbbbnbbbnbbbnbbnbnbnbbbbbnbnbbbbbbbbbbbbnnbbr",
"rvvvvvvvvvvvvvvvvvvvvvvvvvvvvvvvvvvvvvvvvvvvvvvvvvvvvvvvvvvvvvve",
"evvvvvvvvvvvvvvvvvvvvvvvvvvvvvvvvvvvvvvvvvvvvvvvvvvvvvvvvvvvvvvw",
"wccccccccccccccccccccccccccccccccccccccccccccccccccccccccccccccw",
"wxxxxxxxxxxxxxxxxxxxxxxxxxxxxxxxxxxxxxxxxxxxxxxxxxxxxxxxxxxxxxxw",
"0xzzxzxxxzxxzzzzxzzxzxzxxzzzxzzxzxxzzzxzzzxzzxzzzxxzzzxxxzzzzzzq",
"0llllllllllllllllllllllllllllllllllllllllllzlllllllllllllllllll0",
"0llllllllllllllllllllllllllllklllllllllllllllllllllllllllllllkl0",
"9kkjkkkkkkkkkkkkkkkkkkkkkkkkkkkkkkkkkkkkkkkkkkkkkkkkkkkkkkkkkkk9",
"8jjjjjjjjjjjjjjjjjjjjjjjjjjjjjjjjjjjjjjjjjjjjjjjjjjjjjjjjjjjjjj8",
"8jhhhjhhjhjhjhjhhjjjhhhjhhhjjhhhjhjjhhhhjhhjjhhjhhhjhhhjhhhjhjh7",
"7gggggggggggggggggggggggggggggggggggggggggggggggggggggggggggggg8",
"6gggggfgggffffggggffffgggggfgfggggggggfgggfgffggggffggggggfgggg6",
"6ffffffffffffffffffffffffffffffffffffffffffffffffffffffffffffff6",
"4dddddddddddddddddddddddddddddddddddddddddddddddddddddddddddddd4",
"4ssssdddssssdsdsssssdddddsssddddsssddssssdssdssddsdsddssssssdds4",
"4asaaaaaaaaaaaaaaaaaaaaaaaaaaaaaaaaaaaaaaaaaaaaaaaaaaaaaaaaaaaa4",
"4paaaaaaaaaaaapapaaaaaaaaaaaaappppaaaaaaaaaaaappppaaappaaaaaaap3",
"3pppppppppppppppppppppppppppppppppppppppppppppppppppppppppppppp3",
"2iiiiiiiiiiiiiiiiiiiiiiiiiiiiiiiiiiiiiiiiiiiiiiiiiiiiiiiiiiiiii2",
"2iiuuuiiuuuiiuiiiiiiuuiiiuuiiuiiiiiuuuiiuuuuuuiiiiiiiuiiuuuuiii2",
"1yyyyyyyyyyyyyuyyyyyyyyyyyyyyyyyyyyyyyyyyyyyyyyyyyyyyyyyyyyyuyy1",
"<yyyytyyytyyyyyyytyyyyytyttyyyytyytytyyyyyytyyyyyyyttyyyytyyyyt<",
"<tttttttttttttttttttttttttttttttttttttttttttttttttttttttttttttt<",
"<rrrrrrrrrrrrrrrrrrrrrrrrrrrrrrrrrrrrrrrrrrrrrrrrrrrrrrrrrrrrrr,",
",,,,,,>,,,,,,,,,,,,,,>,>,,,,,>,,>,,,>,,,,,,,>,,,,,>,>,>,>,,,,,,,"
};
