/* XPM */
static char *_34df9945218452aef27f7c90f5790209LYFa6b6JCNBwqEE[] = {
/* columns rows colors chars-per-pixel */
"64 64 79 1 ",
"  c #161616",
". c gray11",
"X c gray13",
"o c gray15",
"O c #282828",
"+ c #2C2C2C",
"@ c gray19",
"# c gray21",
"$ c gray23",
"% c gray24",
"& c gray25",
"* c #484848",
"= c #4E4E4E",
"- c #535353",
"; c #555555",
": c #585757",
"> c #5A5A5A",
", c #5C5B5B",
"< c #5F5E5E",
"1 c #605F5F",
"2 c gray39",
"3 c #646464",
"4 c #686767",
"5 c #6B6A6A",
"6 c #6C6B6B",
"7 c #6F6E6E",
"8 c #706F6F",
"9 c #727171",
"0 c #747272",
"q c #777676",
"w c #787777",
"e c #7A7979",
"r c #7C7B7B",
"t c #7F7E7E",
"y c #807F7F",
"u c #838383",
"i c #848383",
"p c #868585",
"a c #888787",
"s c #8B8A8A",
"d c #8C8B8B",
"f c #8F8E8E",
"g c #908F8F",
"h c #929191",
"j c #949393",
"k c #979595",
"l c #989797",
"z c #9B9999",
"x c #9C9B9B",
"c c #9F9E9E",
"v c #A09F9F",
"b c #A3A1A1",
"n c #A4A3A3",
"m c #A7A6A6",
"M c #A8A6A6",
"N c #AAA9A9",
"B c #ACABAB",
"V c #AFAEAE",
"C c #B0AFAF",
"Z c #B3B1B1",
"A c #B5B3B3",
"S c #B6B5B5",
"D c #B8B7B7",
"F c #BBB9B9",
"G c #BDBBBB",
"H c #BFBEBE",
"J c #C1BFBF",
"K c #C1C0C0",
"L c #C5C3C3",
"P c #C7C6C6",
"I c #C8C6C6",
"U c #CBC9C9",
"Y c #CCCBCB",
"T c #CECDCD",
"R c #D0CECE",
"E c #D3D1D1",
"W c #D5D3D3",
"Q c #D7D6D6",
"! c #D8D6D6",
/* pixels */
"bbbbbbbbbbbbbbbbbbbbbbbbbbbbbbbbbbbbbbbbbbbbbbbbbbbbbbbbbbbbbbbb",
"bQ!!!!!!!!!!!Q!!Q!!!!!!Q!!!Q!!Q!!Q!!!!!!Q!!!!!QQ!Q!!!!!!!!!!!!!b",
"vQQQQQQQQQQQQQQQQQQQQQQQQQQQQQQQQQQQQQQQQQQQQQQQQQQQQQQQQQQQQQQv",
"cWWWWWWWWWWWWWWWWWWWWWWWWWWWWWWWWWWWWWWWWWWWWWWWWWWWWWWWWWWWWWWc",
"cEEEEEEEEEEEEEEEEEEEEEEEEEEEEEEEEEEEEEEEEEEEEEEEEEEEEEEEEEEEEEEc",
"cEEREEEEEERRREREEEEEERRRRREEEREEEREEREEREREEREEREEEREEEEEEEEEEEc",
"xRRRRRRRRRTTRRRRTRRRRRTRRRRTRTRTRRTRRRRRTTRRRRRTRRRRRRRRRRTTRRRx",
"zTTTTTTTTTTTTTTTTTTTTTTTTTTTTTTTTTTTTTTTTTTTTTTTTTTTTTTTTTTTTTTz",
"zYYYYYYYYYYYYYYYYYYYYYYYYYYYYYYYYYYYYYYYYYYYYYYYYYYYYYYYYYYYYYYz",
"lUUUUUUUUUUUUUUUUUUUUUUUUUUUUUUUUUUUUUUUUUUUUUUUUUUUUUUUUUUUUUUl",
"kUUUUUIUIUUUUIUUUUUUUIUUUUUUUUUUIUUIUUUUUUIUUIUIIUUUUUUIUUUUUUUk",
"kPIIIPIIIIIIIPIIIIIIIIIIIIPIIIPIIIIIIIIIIIIIIPIIIPIIIIPIIIIIPIIk",
"jPPPPPPPPPPPPPPPPPPPPPPPPPPPPPPPPPPPPPPPPPPPPPPPPPPPPPPPPPPPPPPk",
"jLLLLLLLLLLLLLLLLLLLLLLLLLLLLLLLLLLLLLLLLLLLLLLLLLLLLLLLLLLLLLLj",
"hKKKKKKKKKKKKKKKKKKKKKKKKKKKKKKKKKKKKKKKKKKKKKKKKKKKKKKKKKKKKKKh",
"hKKKKKKKKKKKKKKKKKKJKJKJKKKKKKKJKKKKJKKKKKKJJKKJKKJJJKJKKKKKKKKh",
"gJHJJJHJJJJJJJHJHJHJJJJHJJHJJJJJJHHJJHHHHJJHJJJJJJJHJJJJJJHJJJJf",
"fHHHHHHHHHHHHHHHHHHHHHHHHHHHHHHHHHHHHHHHHHHHHHHHHHHHHHHHHHHHHHHf",
"fGGGGGGGGGGGGGGGGGGGGGGGGGGGGGGGGGGGGGGGGGGGGGGGGGGGGGGGGGGGGGGf",
"dFFFFFFFFFFFFFFFFFFFFFFFFFFFFFFFFFFFFFFFFFFFFFFFFFFFFFFFFFFFFFFd",
"sFFFFFFFFFFFFFFFFFFFFFFFFFFFFFFFFFFFFFFFFFFFFFFFFFFFFFFFFFFFFFFs",
"sDDDDDDDDDDDDDDSDDDDDDDDDDSDDDDSSDDDDDDDDSDDSSDDSDDDDDDDDDDSDDDs",
"aSSSSSSSSSSSSSSSSSSSSSSSSSSSSSSigSSSSSSSSSSSSSSSSSSSSSSSSSSSSSSa",
"aAAAAAAAAAAAAAAAAAAAAAAAAAAAAAV&&VAAAAAAAAAAAAASAAAAAAAAAAAAAAAp",
"pZZZZZZZZZZZZZZZZZZZZZZZZZZZZZqX.9ZZZZZZZZZZZZZZZZZZZZZZZZZZZZZp",
"pZZZZZZZZZZZZZZZZZZZZZZZZZZZZc$  $bZZZZZZZZZZZZZZZZZZZZZZZZZZZZp",
"iCCVCCCCCCCCCVCVCCCCCCCCCCCVV3X  X5VCCCCCVCCCCCCCCCCCCVCCCCCCCCi",
"uVVVVVVVVVVVVVVVVVVVVVVVVVVVl#....#fVVVVVVVVVVVVVVVVVVVVVVVVVVVu",
"uBBBBBBBBBBBVBBBBBBBBBBBBBBM>OXXXXO,NBBBBBBBBBBVBBBBBBBBBBBBBBBu",
"uNNNNNNNNNNNNNNNNNNNNNNNNNNu$Oooooo$pNNNNNNNNNNNNNNNNNNNNNNNNNNu",
"tNNNNNNNNNNNNNNNNNNNNNNNNNb;@+O+O+O@-cNNNNNNNNNNNNNNNNNNNNNNNNNy",
"tMMMMMmMMMMMMMMMMMMMmMMmMme%@@@@@@@@%eMmmMMMMMMMMMMMmmMmMMMMMMMt",
"rmmmmmmmmmmmmmmmmmmmmmmmmmbcccl#$lcccbmmmmmmmmmmmmmmmmmmmmmmmmmt",
"ennnnmnnnnnnnnnnnnnnnnnnnnnnnnc&&cnnnnnnnnnnnmnnnnnnnnnnnnnnnnne",
"ebbbbbbbbbbbbbbbbbbbbbbbbbbbbbz**zbbbbbbbbbbbbbbbbbbbbbbbbbbbbbe",
"ebbbbbbbbbbbbbbbbbbbbbbbbbbbbbz==zbbbbbbbbbbbbbbbbbbbbbbbbbbbbbe",
"wvvvcvvvvvvvvvvvvvvvcvvvvvvvvvl--zvvcvvcvvvccvvvcvvvvcvvvccvvvcw",
"qccccccccccccccccccccccccccccck;>kcccccccccccccccccccccccccccccq",
"qxxxcxxxxxxxcxxxxcxxxxxcxxxcxxk<<kcxcxcxxxxxcxcxxxxxxxxxxxxccxxq",
"qzzzzzzzzzzzzzzzzzzzzzzzzzzzzzj22jzzzzzzzzzzzzzzzzzzzzzzzzzzzzz0",
"0zzzzzzzzzzzzzzzzzzzzzzzzzzzzzh33hzzzzzzzzzzzzzzzzzzzzzzzzzzzzz9",
"9lllllllllllllllllllllllllllllg55hlllllllllllllllllllllllllllll9",
"9kkkkkkkkkkkkkkkkkkkkkkkkkkkkkh98hkkkkkkkkkkkkkkkkkkkkkkkkkkkkk9",
"7kjjkjkkkjkkjjjjkjjkjkjkkjjjkjjhhkkjjjkjjjkjjkjjjkkjjjkkkjjjjjj8",
"7hhhhhhhhhhhhhhhhhhhhhhhhhhhhhhhhhhhhhhhhhhjhhhhhhhhhhhhhhhhhhh7",
"7hhhhhhhhhhhhhhhhhhhhhhhhhhhhhhhhhhhhhhhhhhhhhhhhhhhhhhhhhhhhhh7",
"6gggggggggggggggggggggggggggggggggggggggggggggggggggggggggggggg6",
"5ffffffffffffffffffffffffffffffffffffffffffffffffffffffffffffff5",
"5fdfffddfdfdfdfddfffdddfdddffdfdfdfffdfffddffddfdddfdddfdddfdff5",
"4ssssssssssssssssssssssssssssssssssssssssssssssssssssssssssssss5",
"3sssssssssaasssssssssssssssassssssssasssssasssssssssssssssassss3",
"3aaaaaaaaaaaaaaaaaaaaaaaaaaaaaaaaaaaaaaaaaaaaaaaaaaaaaaaaaaaaaa3",
"2pppppppppppppppppppppppppppppppppppppppppppppppppppppppppppppp3",
"2iiiipppiiiuppppiiiipppppiiippppiiippiiippiippipiiiippppiippppi2",
"2uiuuuuuuuuuuuuuuuuuuuuuuuuuuuuuuuuuuuuuuuuuuuuuuuuuuuuuuuuuuuu2",
"2yuuuuuuuuuuuuuuyuuuuuuuuuuuyuuuyyuuuuuuuuuyyuuuyyuuuuuuuuuyyuu2",
"1yyyyyyyyyyyyyyyyyyyyyyyyyyyyyyyyyyyyyyyyyyyyyyyyyyyyyyyyyyyyyy1",
"<tttttttttttttttttttttttttttttttttttttttttttttttttttttttttttttt<",
"<ttrrttttttttttttttttrtttttttttttttrtttttttttttttttttrtttrttttt<",
",eeeeeeeeeeeeereeeeeeeeeeeeeeeeeeeeeeeeeeeeeeeeeeeeeeeeeeeeeree,",
">eeeeeeeeeeeeeeeeeeeeeeeeeeeeeeeeeeeeeeeeeeeeeeeeeeeeeeeeeeeeee>",
">wwwwwwwwwwwwwwwwwwwwwwwwwwwwwwwwwwwwwwwwwwwwwwwwwwwwwwwwwwwwww>",
">qqqqqqqqqqqqqqqqqqqqqqqqqqqqqqqqqqqqqqqqqqqqqqqqqqqqqqqqqqqqqq>",
"::::::;::::::::::::::;:;:::::;::;:::;:::::::;:::::;:;:;:;:::::::"
};
